<svg width="950" height="633" version="1.1" xmlns="http://www.w3.org/2000/svg" desc="Created with imagetracer.js version 1.2.6" ><path fill="rgb(230,230,230)" stroke="rgb(230,230,230)" stroke-width="1" opacity="1" d="M 263.5 80 L 266 80.5 L 263.5 81 L 263.5 80 Z " /><path fill="rgb(230,230,230)" stroke="rgb(230,230,230)" stroke-width="1" opacity="1" d="M 682.5 80 L 686 80.5 L 682.5 81 L 682.5 80 Z " /><path fill="rgb(230,230,230)" stroke="rgb(230,230,230)" stroke-width="1" opacity="1" d="M 694.5 83 L 695.5 85 L 694.5 83 Z " /><path fill="rgb(230,230,230)" stroke="rgb(230,230,230)" stroke-width="1" opacity="1" d="M 253.5 84 L 252.5 86 L 253.5 84 Z " /><path fill="rgb(230,230,230)" stroke="rgb(230,230,230)" stroke-width="1" opacity="1" d="M 697.5 85 L 702 88.5 L 700.5 88 L 697.5 85 Z " /><path fill="rgb(230,230,230)" stroke="rgb(230,230,230)" stroke-width="1" opacity="1" d="M 250.5 86 L 245.5 92 L 250.5 86 Z " /><path fill="rgb(230,230,230)" stroke="rgb(230,230,230)" stroke-width="1" opacity="1" d="M 704.5 92 L 705.5 94 L 704.5 92 Z " /><path fill="rgb(230,230,230)" stroke="rgb(230,230,230)" stroke-width="1" opacity="1" d="M 244.5 93 L 243 95.5 L 240.5 101 L 240 99.5 L 244.5 93 Z " /><path fill="rgb(230,230,230)" stroke="rgb(230,230,230)" stroke-width="1" opacity="1" d="M 706.5 95 Q 711.3 99.3 711 108.5 L 710 108.5 L 710 103.5 L 706.5 95 Z " /><path fill="rgb(230,230,230)" stroke="rgb(230,230,230)" stroke-width="1" opacity="1" d="M 239.5 102 L 240 104.5 L 239 105.5 L 239 526.5 Q 240.5 535.5 246 540.5 L 243 538.5 L 238 526.5 L 238 105.5 L 239.5 102 Z " /><path fill="rgb(230,230,230)" stroke="rgb(230,230,230)" stroke-width="1" opacity="1" d="M 711.5 110 L 712 521.5 L 711 521.5 L 711.5 110 Z " /><path fill="rgb(230,230,230)" stroke="rgb(230,230,230)" stroke-width="1" opacity="1" d="M 474.5 225 L 480 225.5 L 474.5 226 L 474.5 225 Z " /><path fill="rgb(230,230,230)" stroke="rgb(230,230,230)" stroke-width="1" opacity="1" d="M 482.5 226 L 483.5 228 L 482.5 226 Z " /><path fill="rgb(230,230,230)" stroke="rgb(230,230,230)" stroke-width="1" opacity="1" d="M 470.5 227 L 467.5 231 L 470.5 227 Z " /><path fill="rgb(230,230,230)" stroke="rgb(230,230,230)" stroke-width="1" opacity="1" d="M 486.5 230 L 491 239.5 L 490 239.5 L 486.5 230 Z " /><path fill="rgb(230,230,230)" stroke="rgb(230,230,230)" stroke-width="1" opacity="1" d="M 466.5 232 L 467 233.5 L 465.5 236 L 465 234.5 L 466.5 232 Z " /><path fill="rgb(230,230,230)" stroke="rgb(230,230,230)" stroke-width="1" opacity="1" d="M 464.5 237 L 465 238.5 L 460.5 247 L 461 245.5 L 464.5 237 Z " /><path fill="rgb(230,230,230)" stroke="rgb(230,230,230)" stroke-width="1" opacity="1" d="M 501.5 264 L 504 269.5 L 503 269.5 L 501.5 264 Z " /><path fill="rgb(230,230,230)" stroke="rgb(230,230,230)" stroke-width="1" opacity="1" d="M 478.5 267 L 482 274.5 L 481 274.5 L 478.5 267 Z " /><path fill="rgb(230,230,230)" stroke="rgb(230,230,230)" stroke-width="1" opacity="1" d="M 504.5 271 L 508 278.5 L 507 278.5 L 504.5 271 Z " /><path fill="rgb(230,230,230)" stroke="rgb(230,230,230)" stroke-width="1" opacity="1" d="M 448.5 274 L 449 275.5 L 447.5 278 L 447 276.5 L 448.5 274 Z " /><path fill="rgb(230,230,230)" stroke="rgb(230,230,230)" stroke-width="1" opacity="1" d="M 482.5 276 L 485 281.5 L 484 281.5 L 482.5 276 Z " /><path fill="rgb(230,230,230)" stroke="rgb(230,230,230)" stroke-width="1" opacity="1" d="M 471.5 277 L 472 278.5 L 465.5 292 L 465 290.5 L 471.5 277 Z " /><path fill="rgb(230,230,230)" stroke="rgb(230,230,230)" stroke-width="1" opacity="1" d="M 446.5 279 L 447 280.5 L 440.5 294 L 440 292.5 L 446.5 279 Z " /><path fill="rgb(230,230,230)" stroke="rgb(230,230,230)" stroke-width="1" opacity="1" d="M 508.5 280 L 510 282.5 L 508 281.5 L 508.5 280 Z " /><path fill="rgb(230,230,230)" stroke="rgb(230,230,230)" stroke-width="1" opacity="1" d="M 461.5 300 L 463 303.5 L 461 302.5 L 461.5 300 Z " /><path fill="rgb(230,230,230)" stroke="rgb(230,230,230)" stroke-width="1" opacity="1" d="M 466.5 306 L 468.5 309 L 466.5 306 Z " /><path fill="rgb(230,230,230)" stroke="rgb(230,230,230)" stroke-width="1" opacity="1" d="M 470.5 309 L 474.5 314 L 470.5 309 Z " /><path fill="rgb(230,230,230)" stroke="rgb(230,230,230)" stroke-width="1" opacity="1" d="M 521.5 310 L 524 315.5 L 523 315.5 L 521.5 310 Z " /><path fill="rgb(230,230,230)" stroke="rgb(230,230,230)" stroke-width="1" opacity="1" d="M 498.5 313 L 502 320.5 L 501 320.5 L 498.5 313 Z " /><path fill="rgb(230,230,230)" stroke="rgb(230,230,230)" stroke-width="1" opacity="1" d="M 476.5 314 L 480.5 319 L 476.5 314 Z " /><path fill="rgb(230,230,230)" stroke="rgb(230,230,230)" stroke-width="1" opacity="1" d="M 524.5 317 L 528 324.5 L 527 324.5 L 524.5 317 Z " /><path fill="rgb(230,230,230)" stroke="rgb(230,230,230)" stroke-width="1" opacity="1" d="M 482.5 319 L 485.5 323 L 482.5 319 Z " /><path fill="rgb(230,230,230)" stroke="rgb(230,230,230)" stroke-width="1" opacity="1" d="M 502.5 322 L 505 327.5 L 504 327.5 L 502.5 322 Z " /><path fill="rgb(230,230,230)" stroke="rgb(230,230,230)" stroke-width="1" opacity="1" d="M 427.5 323 L 428 324.5 L 422.5 336 L 422 334.5 L 427.5 323 Z " /><path fill="rgb(230,230,230)" stroke="rgb(230,230,230)" stroke-width="1" opacity="1" d="M 451.5 324 L 451 325.5 L 447.5 334 L 447 332.5 L 451.5 324 Z " /><path fill="rgb(230,230,230)" stroke="rgb(230,230,230)" stroke-width="1" opacity="1" d="M 488.5 324 L 489.5 326 L 488.5 324 Z " /><path fill="rgb(230,230,230)" stroke="rgb(230,230,230)" stroke-width="1" opacity="1" d="M 455.5 326 L 456.5 328 L 455.5 326 Z " /><path fill="rgb(230,230,230)" stroke="rgb(230,230,230)" stroke-width="1" opacity="1" d="M 493.5 328 L 504 337.5 L 499.5 334 L 493.5 328 Z " /><path fill="rgb(230,230,230)" stroke="rgb(230,230,230)" stroke-width="1" opacity="1" d="M 459.5 329 L 461.5 332 L 459.5 329 Z " /><path fill="rgb(230,230,230)" stroke="rgb(230,230,230)" stroke-width="1" opacity="1" d="M 463.5 332 L 474 341.5 L 469.5 338 L 463.5 332 Z " /><path fill="rgb(230,230,230)" stroke="rgb(230,230,230)" stroke-width="1" opacity="1" d="M 505.5 338 L 508.5 342 L 505.5 338 Z " /><path fill="rgb(230,230,230)" stroke="rgb(230,230,230)" stroke-width="1" opacity="1" d="M 478.5 345 L 479.5 347 L 478.5 345 Z " /><path fill="rgb(230,230,230)" stroke="rgb(230,230,230)" stroke-width="1" opacity="1" d="M 482.5 348 L 484.5 351 L 482.5 348 Z " /><path fill="rgb(230,230,230)" stroke="rgb(230,230,230)" stroke-width="1" opacity="1" d="M 486.5 351 L 490.5 356 L 486.5 351 Z " /><path fill="rgb(230,230,230)" stroke="rgb(230,230,230)" stroke-width="1" opacity="1" d="M 492.5 356 L 497.5 362 L 492.5 356 Z " /><path fill="rgb(230,230,230)" stroke="rgb(230,230,230)" stroke-width="1" opacity="1" d="M 541.5 356 L 544 361.5 L 543 361.5 L 541.5 356 Z " /><path fill="rgb(230,230,230)" stroke="rgb(230,230,230)" stroke-width="1" opacity="1" d="M 499.5 362 L 501.5 365 L 499.5 362 Z " /><path fill="rgb(230,230,230)" stroke="rgb(230,230,230)" stroke-width="1" opacity="1" d="M 544.5 363 L 547 368.5 L 546 368.5 L 544.5 363 Z " /><path fill="rgb(230,230,230)" stroke="rgb(230,230,230)" stroke-width="1" opacity="1" d="M 433.5 366 L 433 367.5 L 429.5 376 L 429 374.5 L 433.5 366 Z " /><path fill="rgb(230,230,230)" stroke="rgb(230,230,230)" stroke-width="1" opacity="1" d="M 504.5 366 L 506.5 369 L 504.5 366 Z " /><path fill="rgb(230,230,230)" stroke="rgb(230,230,230)" stroke-width="1" opacity="1" d="M 408.5 367 L 409 368.5 L 407.5 371 L 407 369.5 L 408.5 367 Z " /><path fill="rgb(230,230,230)" stroke="rgb(230,230,230)" stroke-width="1" opacity="1" d="M 509.5 370 L 513.5 375 L 509.5 370 Z " /><path fill="rgb(230,230,230)" stroke="rgb(230,230,230)" stroke-width="1" opacity="1" d="M 406.5 372 L 407 373.5 L 403.5 380 L 403 378.5 L 406.5 372 Z " /><path fill="rgb(230,230,230)" stroke="rgb(230,230,230)" stroke-width="1" opacity="1" d="M 515.5 375 L 519.5 380 L 515.5 375 Z " /><path fill="rgb(230,230,230)" stroke="rgb(230,230,230)" stroke-width="1" opacity="1" d="M 428.5 377 L 429 378.5 L 427.5 381 L 427 379.5 L 428.5 377 Z " /><path fill="rgb(230,230,230)" stroke="rgb(230,230,230)" stroke-width="1" opacity="1" d="M 521.5 380 L 524.5 384 L 521.5 380 Z " /><path fill="rgb(230,230,230)" stroke="rgb(230,230,230)" stroke-width="1" opacity="1" d="M 551.5 380 L 552 382.5 L 551 382.5 L 551.5 380 Z " /><path fill="rgb(230,230,230)" stroke="rgb(230,230,230)" stroke-width="1" opacity="1" d="M 527.5 385 L 529.5 388 L 527.5 385 Z " /><path fill="rgb(230,230,230)" stroke="rgb(230,230,230)" stroke-width="1" opacity="1" d="M 533.5 390 L 536 391.5 L 534.5 392 L 533.5 390 Z " /><path fill="rgb(230,230,230)" stroke="rgb(230,230,230)" stroke-width="1" opacity="1" d="M 546.5 390 L 545.5 392 L 546.5 390 Z " /><path fill="rgb(230,230,230)" stroke="rgb(230,230,230)" stroke-width="1" opacity="1" d="M 400.5 392 L 421 392.5 L 400.5 393 L 400.5 392 Z " /><path fill="rgb(230,230,230)" stroke="rgb(230,230,230)" stroke-width="1" opacity="1" d="M 537.5 392 L 544 392.5 L 537.5 393 L 537.5 392 Z " /><path fill="rgb(230,230,230)" stroke="rgb(230,230,230)" stroke-width="1" opacity="1" d="M 710.5 523 L 711 528.5 L 707.5 536 L 708 534.5 L 710.5 523 Z " /><path fill="rgb(230,230,230)" stroke="rgb(230,230,230)" stroke-width="1" opacity="1" d="M 706.5 537 L 705.5 539 L 706.5 537 Z " /><path fill="rgb(230,230,230)" stroke="rgb(230,230,230)" stroke-width="1" opacity="1" d="M 703.5 541 L 698.5 547 L 692.5 550 L 692.5 549 Q 699.6 546.6 703.5 541 Z " /><path fill="rgb(230,230,230)" stroke="rgb(230,230,230)" stroke-width="1" opacity="1" d="M 247.5 543 L 248.5 545 L 247.5 543 Z " /><path fill="rgb(230,230,230)" stroke="rgb(230,230,230)" stroke-width="1" opacity="1" d="M 250.5 545 L 252.5 548 L 250.5 545 Z " /><path fill="rgb(230,230,230)" stroke="rgb(230,230,230)" stroke-width="1" opacity="1" d="M 267.5 552 L 681 552.5 L 267.5 553 L 267.5 552 Z " /><path fill="rgb(255,255,255)" stroke="rgb(255,255,255)" stroke-width="1" opacity="1" d="M 0 0 L 950 0 L 950 633 L 0 633 L 0 0 Z M 264 80 L 251 86 Q 241 93 238 106 L 238 527 Q 240 537 247 544 L 259 551 L 268 553 L 681 553 L 694 550 L 699 547 L 709 535 L 712 522 L 712 111 L 710 101 L 702 89 Q 696 82 686 80 L 264 80 Z " /><path fill="rgb(255,255,255)" stroke="rgb(255,255,255)" stroke-width="1" opacity="1" d="M 473.5 226 Q 483.3 224.3 486 229.5 L 508 281.5 L 512 287.5 L 524 318.5 L 531 331.5 L 544 364.5 L 550 375.5 L 551 385.5 L 547.5 390 Q 544.6 393.6 536.5 392 L 477.5 345 L 463.5 332 L 451.5 324 L 449 327.5 L 436 361.5 L 432 367.5 L 421.5 392 L 399.5 392 L 399 389.5 L 407 373.5 L 418 344.5 L 428 324.5 L 437 300.5 L 447 280.5 L 458 251.5 Q 464.5 243.5 467 231.5 L 471.5 227 L 473.5 226 Z M 478 265 Q 467 282 461 303 L 510 342 L 511 343 L 478 265 Z " /><path fill="rgb(160,11,11)" stroke="rgb(160,11,11)" stroke-width="1" opacity="1" d="M 266.5 80 L 682 80.5 L 266.5 81 L 266.5 80 Z " /><path fill="rgb(160,11,11)" stroke="rgb(160,11,11)" stroke-width="1" opacity="1" d="M 251.5 86 L 250.5 88 L 251.5 86 Z " /><path fill="rgb(160,11,11)" stroke="rgb(160,11,11)" stroke-width="1" opacity="1" d="M 700.5 88 L 703.5 92 L 700.5 88 Z " /><path fill="rgb(160,11,11)" stroke="rgb(160,11,11)" stroke-width="1" opacity="1" d="M 710.5 109 L 711 522.5 L 710 522.5 L 710.5 109 Z " /><path fill="rgb(160,11,11)" stroke="rgb(160,11,11)" stroke-width="1" opacity="1" d="M 461.5 141 L 500.5 142 L 516.5 146 L 521.5 146 L 524.5 148 L 539.5 152 L 564.5 164 L 582.5 176 L 599.5 192 L 601 192 L 624 221.5 L 640 253.5 L 646 273.5 L 649 296.5 L 650 297.5 L 650 331.5 L 649 332.5 L 649 339.5 L 646 355.5 L 640 375.5 L 628 400.5 L 614 422 Q 611.3 420.9 612 423.5 L 590.5 446 Q 565.5 468 530.5 480 L 515.5 484 L 498.5 487 L 491.5 487 L 490.5 488 L 462.5 488 L 461.5 487 L 454.5 487 L 437.5 484 L 402.5 472 Q 369.9 456.1 347 430.5 Q 333.8 416.2 324 398.5 L 312 371.5 L 308 358.5 L 304 336.5 L 303 303.5 L 304 302.5 L 304 291.5 L 306 285.5 L 306 279.5 L 310 267.5 L 310 263.5 L 320 238.5 Q 335.8 207.3 360.5 185 Q 379.8 167.8 404.5 156 L 432.5 146 L 437.5 146 L 441.5 144 L 446.5 144 L 452.5 142 L 460.5 142 L 461.5 141 Z M 461 152 L 460 153 L 453 153 L 437 156 L 414 164 Q 387 175 368 194 L 365 196 Q 340 219 326 252 L 318 277 L 315 294 L 315 301 L 314 302 L 314 328 L 316 337 L 316 344 L 320 361 Q 330 394 350 418 Q 371 441 399 458 L 434 472 L 463 477 L 493 477 Q 494 474 501 476 L 507 474 L 513 474 L 535 467 Q 564 456 586 436 Q 613 412 628 377 L 636 351 L 638 333 L 639 332 L 639 325 L 640 324 L 640 306 L 638 297 L 638 289 L 632 264 Q 621 231 600 208 Q 575 178 536 162 L 517 156 L 502 153 Q 495 155 494 152 L 461 152 Z " /><path fill="rgb(160,11,11)" stroke="rgb(160,11,11)" stroke-width="1" opacity="1" d="M 484.5 227 L 486.5 230 L 484.5 227 Z " /><path fill="rgb(160,11,11)" stroke="rgb(160,11,11)" stroke-width="1" opacity="1" d="M 463.5 303 L 465.5 306 L 463.5 303 Z " /><path fill="rgb(160,11,11)" stroke="rgb(160,11,11)" stroke-width="1" opacity="1" d="M 474.5 312 L 475.5 314 L 474.5 312 Z " /><path fill="rgb(160,11,11)" stroke="rgb(160,11,11)" stroke-width="1" opacity="1" d="M 480.5 317 L 481.5 319 L 480.5 317 Z " /><path fill="rgb(160,11,11)" stroke="rgb(160,11,11)" stroke-width="1" opacity="1" d="M 486.5 322 L 487.5 324 L 486.5 322 Z " /><path fill="rgb(160,11,11)" stroke="rgb(160,11,11)" stroke-width="1" opacity="1" d="M 505.5 330 L 507 332.5 L 505 331.5 L 505.5 330 Z " /><path fill="rgb(160,11,11)" stroke="rgb(160,11,11)" stroke-width="1" opacity="1" d="M 497.5 331 L 498.5 333 L 497.5 331 Z " /><path fill="rgb(160,11,11)" stroke="rgb(160,11,11)" stroke-width="1" opacity="1" d="M 462.5 332 L 464.5 335 L 462.5 332 Z " /><path fill="rgb(160,11,11)" stroke="rgb(160,11,11)" stroke-width="1" opacity="1" d="M 502.5 335 L 504.5 338 L 502.5 335 Z " /><path fill="rgb(160,11,11)" stroke="rgb(160,11,11)" stroke-width="1" opacity="1" d="M 469.5 338 L 470.5 340 L 469.5 338 Z " /><path fill="rgb(160,11,11)" stroke="rgb(160,11,11)" stroke-width="1" opacity="1" d="M 474.5 342 L 475.5 344 L 474.5 342 Z " /><path fill="rgb(160,11,11)" stroke="rgb(160,11,11)" stroke-width="1" opacity="1" d="M 485.5 351 L 487.5 354 L 485.5 351 Z " /><path fill="rgb(160,11,11)" stroke="rgb(160,11,11)" stroke-width="1" opacity="1" d="M 491.5 356 L 492.5 358 L 491.5 356 Z " /><path fill="rgb(160,11,11)" stroke="rgb(160,11,11)" stroke-width="1" opacity="1" d="M 502.5 365 L 503.5 367 L 502.5 365 Z " /><path fill="rgb(160,11,11)" stroke="rgb(160,11,11)" stroke-width="1" opacity="1" d="M 507.5 369 L 510.5 373 L 507.5 369 Z " /><path fill="rgb(160,11,11)" stroke="rgb(160,11,11)" stroke-width="1" opacity="1" d="M 514.5 375 L 516.5 378 L 514.5 375 Z " /><path fill="rgb(160,11,11)" stroke="rgb(160,11,11)" stroke-width="1" opacity="1" d="M 520.5 380 L 521.5 382 L 520.5 380 Z " /><path fill="rgb(160,11,11)" stroke="rgb(160,11,11)" stroke-width="1" opacity="1" d="M 530.5 388 L 532.5 391 L 530.5 388 Z " /><path fill="rgb(160,11,11)" stroke="rgb(160,11,11)" stroke-width="1" opacity="1" d="M 549.5 388 L 546.5 392 L 549.5 388 Z " /><path fill="rgb(160,11,11)" stroke="rgb(160,11,11)" stroke-width="1" opacity="1" d="M 423.5 390 L 421.5 393 L 423.5 390 Z " /><path fill="rgb(160,11,11)" stroke="rgb(160,11,11)" stroke-width="1" opacity="1" d="M 401.5 393 L 420 393.5 L 401.5 394 L 401.5 393 Z " /><path fill="rgb(160,11,11)" stroke="rgb(160,11,11)" stroke-width="1" opacity="1" d="M 539.5 393 L 542 393.5 L 539.5 394 L 539.5 393 Z " /><path fill="rgb(160,11,11)" stroke="rgb(160,11,11)" stroke-width="1" opacity="1" d="M 246.5 541 L 249.5 545 L 246.5 541 Z " /><path fill="rgb(160,11,11)" stroke="rgb(160,11,11)" stroke-width="1" opacity="1" d="M 252.5 546 L 253.5 548 L 252.5 546 Z " /><path fill="rgb(0,0,0)" stroke="rgb(0,0,0)" stroke-width="1" opacity="1" d="M 262.5 81 L 687.5 81 Q 698.8 84.8 705 93.5 L 710 105.5 L 710 527.5 Q 707.3 538.8 699.5 545 L 684.5 552 L 265.5 552 Q 251.1 548.9 244 538.5 L 239 524.5 L 239 107.5 Q 241.1 94.6 249.5 88 L 262.5 81 Z M 462 141 L 461 142 L 453 142 L 447 144 L 442 144 L 438 146 L 433 146 L 405 156 Q 380 168 361 185 Q 336 207 320 239 L 310 264 L 310 268 L 306 280 L 306 286 L 304 292 L 304 303 L 303 304 L 304 337 L 308 359 L 312 372 L 324 399 Q 334 416 347 431 Q 370 456 403 472 L 438 484 L 455 487 L 462 487 L 463 488 L 491 488 L 492 487 L 499 487 L 516 484 L 531 480 Q 566 468 591 446 L 612 424 Q 611 421 614 422 L 628 401 L 640 376 L 646 356 L 649 340 L 649 333 L 650 332 L 650 298 L 649 297 L 646 274 L 640 254 L 624 222 L 601 192 L 600 192 L 583 176 L 565 164 L 540 152 L 525 148 L 522 146 L 517 146 L 501 142 L 462 141 Z " /><path fill="rgb(0,0,0)" stroke="rgb(0,0,0)" stroke-width="1" opacity="1" d="M 460.5 152 L 493.5 152 Q 495.3 154.8 501.5 153 L 516.5 156 L 535.5 162 Q 574.8 177.7 600 207.5 Q 620.7 230.8 632 263.5 L 638 288.5 L 638 296.5 L 640 305.5 L 640 323.5 L 639 324.5 L 639 331.5 L 638 332.5 L 636 350.5 L 628 376.5 Q 612.6 412.1 585.5 436 Q 564.1 455.6 534.5 467 L 512.5 474 L 506.5 474 L 500.5 476 Q 494.3 474.3 492.5 477 L 462.5 477 L 433.5 472 L 398.5 458 Q 370.5 441.5 350 417.5 Q 330.4 393.6 320 360.5 L 316 343.5 L 316 336.5 L 314 327.5 L 314 301.5 L 315 300.5 L 315 293.5 L 318 276.5 L 326 251.5 Q 340.3 218.8 364.5 196 L 367.5 194 Q 386.6 175.1 413.5 164 L 436.5 156 L 452.5 153 L 459.5 153 L 460.5 152 Z M 475 225 L 472 226 L 465 234 L 434 309 L 425 327 L 418 346 L 399 388 L 399 393 L 402 394 L 420 394 L 422 393 L 426 387 L 453 324 L 533 391 L 540 394 L 547 392 Q 551 389 552 384 L 552 380 L 549 372 L 534 340 L 527 321 L 518 303 L 487 230 Q 484 224 475 225 Z " /><path fill="rgb(0,0,0)" stroke="rgb(0,0,0)" stroke-width="1" opacity="1" d="M 476 267 Q 478.7 265.9 478 268.5 L 510 340.5 L 508.5 341 L 462 303 L 476 267 Z " /></svg>